<?xml version="1.0" encoding="utf-8"?>
<!-- Generator: Adobe Illustrator 27.1.1, SVG Export Plug-In . SVG Version: 6.00 Build 0)  -->
<svg version="1.1" id="Layer_1" xmlns="http://www.w3.org/2000/svg" xmlns:xlink="http://www.w3.org/1999/xlink" x="0px" y="0px" width="300"
	 viewBox="0 0 614.6 196.6" style="enable-background:new 0 0 614.6 196.6;" xml:space="preserve">
<style type="text/css">
	.st0{fill:#3A3A3A;}
	.st1{fill:#EF8F21;}
</style>
<g id="v-2">
	<g>
		<g>
			<path class="st0" d="M238.4,118.5v-15.4h-35.1v92.5h16.1v-43.4h18.1V137h-18.1v-18.4H238.4z"/>
		</g>
		<g>
			<path class="st0" d="M282.8,103h-29.6l-8.9,92.5h15.4L261,180h14.4l1.3,15.4h14.9L282.8,103z M262,168l3.8-51.8h3.8l4.4,51.8H262
				z"/>
		</g>
		<g>
			<path class="st0" d="M296.2,103v15.2h11.3v77.3h15.9v-77.3h11.3V103H296.2L296.2,103z"/>
		</g>
		<g>
			<path class="st0" d="M370.5,157.4V173c0,2.4-0.4,4.4-1.1,5.9c-1,1.9-2.5,2.9-4.9,2.9c-1.9,0-3.5-0.8-4.6-2.3
				c-1-1.4-1.4-3.5-1.4-6.5v-47.8c0-2.4,0.4-4.3,1.1-5.9c0.6-1.3,1.9-2.9,5.1-2.9c2.5,0,4,1.1,4.6,2c1,1.3,1.4,3.5,1.4,6.6v12.5
				h15.9v-14.6c0-4.8-1-8.5-2.9-11.8c-1.9-3-4.4-5.4-7.7-6.8c-3.4-1.6-7.2-2.4-11.4-2.4c-7.8,0-13.3,2.3-16.7,6.6
				c-3.5,4.6-5.3,11.4-5.3,20.3v44.3c0,7.3,1.9,13,5.9,17.1c4,4,9,6,15.6,6c7.2,0,12.7-1.8,16.7-5.3c3.8-3.5,5.9-9.2,5.9-17.2v-16.6
				L370.5,157.4L370.5,157.4z"/>
		</g>
		<g>
			<path class="st0" d="M432.2,103h-29.6l-8.9,92.5h15.4l1.3-15.4h14.4l1.3,15.4H441L432.2,103z M411.4,168l3.8-51.8h3.8l4.4,51.8
				H411.4z"/>
		</g>
		<g>
			<path class="st0" d="M495.1,103l-9.4,68.4l-9.4-68.4H450v92.5h14.2v-67.2l3.1-0.4l11.4,67.5h14.4l10.8-67.5l3.1,0.4v67.2h14.3
				V103H495.1z"/>
		</g>
		<g>
			<path class="st0" d="M549.5,180v-25.1h18.1v-14.8h-18.1v-21.8h18.7v-15.2h-35.1v92.5h36.4v-15.4h-20.1V180H549.5z"/>
		</g>
		<g>
			<path class="st0" d="M595,182.3V103H579v92.5h35.6v-13H595V182.3L595,182.3z"/>
		</g>
	</g>
	<g>
		<path class="st1" d="M213.9,28.3c0,3.5-1.9,8.3-5.8,10.8c-2.9,1.9-6.1,2.3-7.8,2.4c-3.1,0.1-4.8-0.5-7.9-1
			c-4.9-0.8-8.9,0-12.7,0.6c-6.8,1.3-11.4,3.6-14.7,5.3c-5.4,2.9-7.9,4.3-9.9,7.5c-2.4,4.1-1.9,8.8-1.6,10.9
			c4.9,22,5.1,40.5,4.4,53.1c-1.1,18.6-2,36.3-13.3,54.2c-6.4,10.2-13.9,17.2-19.7,21.6V136c0-9.5-3-16.8-8.9-22
			c-3.4-2.9-7.5-4.9-12.4-6.1c0.5-2.8,0.8-5.1,0.8-7c0.5-11.9-3.6-26-4.3-27.9c-2.3-7.3-3.1-9.7-3.8-16.2c-1-9.9,1.3-12-1.1-15.6
			c-2.5-3.8-6-2.8-18.6-9.2c-4.6-2.4-6.1-3.6-6.5-5.4c-0.5-4.1,7.2-8.2,7.9-8.4c2.4-1.3,4.9-1.8,9.9-2.9c7-1.4,7.3-1,10-1.8
			c5.5-1.9,5.5-4.4,11.4-8.2c1.9-1.1,8.3-5.1,16.8-5.4c4.6-0.1,8.4,0.8,14.2,2c4.4,1.1,5.1,1.6,8.9,2.5c4.9,1.1,9.2,1.6,14.7,1.9
			c18.4,1,19.6-2.3,26.8-0.1C202.1,9.5,214.3,18.5,213.9,28.3z"/>
		<path class="st1" d="M112.5,118.2c-2.9-2.5-6.5-4.3-10.9-5.4c-3.5-1-7.7-1.4-12-1.4c-6.4,0-11.8,1-16.1,2.8
			c-4.3,1.8-8.3,4.8-12,8.9l-1.3,1.4l-1.3-1.5c-6-7.7-14.9-11.4-26.3-11.4c-9.7,0-17.7,2.4-23.7,6.8c-6,4.6-8.9,10.3-8.9,17.4v59.6
			h31.5v-53.7c0-7.3,4.3-8.4,6.6-8.4s4,0.6,4.9,2c0.8,1.3,1.3,3.1,1.3,6.4v53.7h31.5v-54.1c0-6.8,4.1-7.9,6.6-7.9c2.4,0,4,0.6,4.9,2
			c0.8,1.3,1.1,3.1,1.1,6.4v53.7h31.5v-57.3C120.3,129.2,117.6,122.7,112.5,118.2z"/>
	</g>
</g>
</svg>
