<?xml version="1.0" encoding="utf-8"?>
<!-- Generator: Adobe Illustrator 27.1.1, SVG Export Plug-In . SVG Version: 6.00 Build 0)  -->
<svg version="1.1" id="Layer_1" xmlns="http://www.w3.org/2000/svg" xmlns:xlink="http://www.w3.org/1999/xlink" x="0px" y="0px" width="300"
	 viewBox="0 0 610 194.4" style="enable-background:new 0 0 610 194.4;" xml:space="preserve">
<style type="text/css">
	.st0{fill:#FFFFFF;}
	.st1{fill:#EF8F21;}
</style>
<g id="v-3">
	<g>
		<g>
			<path class="st0" d="M236.6,117.1v-15.4h-34.9v91.8h15.9v-43h18v-15.1h-18v-18.2H236.6z"/>
		</g>
		<g>
			<path class="st0" d="M280.6,101.6h-29.4l-8.9,91.8h15.2l1.2-15.2h14.4l1.2,15.2h14.9L280.6,101.6z M259.9,166.1l3.8-51.4h3.8
				l4.4,51.4H259.9z"/>
		</g>
		<g>
			<path class="st0" d="M294,101.6v15.1h11.3v76.8H321v-76.8h11.2v-15.1H294L294,101.6z"/>
		</g>
		<g>
			<path class="st0" d="M367.6,155.8v15.5c0,2.4-0.4,4.4-1.1,5.9c-1,1.9-2.5,2.9-4.9,2.9c-1.9,0-3.5-0.8-4.6-2.2
				c-1-1.4-1.4-3.5-1.4-6.5v-47.5c0-2.4,0.4-4.2,1.1-5.9c0.6-1.2,1.9-2.9,5-2.9c2.5,0,4,1.1,4.6,2c1,1.2,1.4,3.5,1.4,6.6v12.5h15.8
				v-14.5c0-4.8-1-8.5-2.9-11.6c-1.9-3-4.4-5.4-7.6-6.8c-3.2-1.6-7.1-2.4-11.4-2.4c-7.8,0-13.2,2.3-16.5,6.6
				c-3.5,4.6-5.3,11.4-5.3,20.1v43.9c0,7.2,1.9,12.9,5.9,16.9c4,4,9,6,15.5,6c7.1,0,12.6-1.7,16.5-5.2c3.8-3.5,5.9-9.1,5.9-17v-16.4
				C383.6,155.8,367.6,155.8,367.6,155.8z"/>
		</g>
		<g>
			<path class="st0" d="M428.9,101.6h-29.4l-8.9,91.8h15.2l1.2-15.2h14.4l1.2,15.2h14.9L428.9,101.6z M408.1,166.1l3.8-51.4h3.8
				l4.4,51.4H408.1z"/>
		</g>
		<g>
			<path class="st0" d="M491.3,101.6l-9.2,67.9l-9.2-67.9h-26v91.9h14v-66.8l3.1-0.4l11.4,67h14.4l10.8-67l3.1,0.4v66.8h14.2v-91.9
				H491.3z"/>
		</g>
		<g>
			<path class="st0" d="M545.3,178.1v-24.9h18v-14.8h-18V117h18.6v-15.3H529v91.8h36.1v-15.2h-19.9V178.1z"/>
		</g>
		<g>
			<path class="st0" d="M590.4,180.4v-78.8h-15.8v91.9H610v-12.9h-19.5v-0.2H590.4z"/>
		</g>
	</g>
	<g>
		<path class="st1" d="M212.3,27.6c0,3.5-1.9,8.3-5.6,10.8c-2.9,1.9-6.1,2.2-7.8,2.4c-3.1,0.1-4.8-0.5-7.9-1
			c-4.9-0.8-8.9,0-12.6,0.6c-6.7,1.2-11.4,3.6-14.5,5.2c-5.4,2.9-7.9,4.3-9.8,7.4c-2.4,4.1-1.9,8.6-1.6,10.9
			c4.9,21.8,5,40.2,4.4,52.6c-1.1,18.5-2,36-13.2,53.7c-6.2,10.1-13.9,17-19.5,21.5v-57.3c0-9.5-3-16.8-8.9-21.8
			c-3.2-2.9-7.4-4.9-12.2-6.1c0.5-2.6,0.7-5,0.7-7c0.5-11.9-3.6-25.8-4.2-27.6c-2.2-7.2-3.1-9.6-3.8-16.1c-1-9.7,1.2-12-1.1-15.5
			c-2.5-3.8-6-2.6-18.5-9.1c-4.6-2.4-6.1-3.6-6.5-5.4c-0.5-4.1,7.1-8,7.9-8.4c2.4-1.2,4.9-1.8,9.7-2.9c7-1.4,7.3-1,9.9-1.7
			c5.5-1.9,5.5-4.4,11.4-8c1.9-1.1,8.2-5,16.8-5.4c4.6-0.1,8.4,0.8,14,2c4.4,1.1,5,1.6,8.9,2.5c4.9,1.1,9.1,1.6,14.5,1.9
			c18.2,1,19.4-2.2,26.6-0.1C200.6,8.9,212.6,17.9,212.3,27.6z"/>
		<path class="st1" d="M111.6,116.8c-2.9-2.5-6.5-4.2-10.9-5.4c-3.5-1-7.6-1.4-12-1.4c-6.2,0-11.6,1-15.9,2.6
			c-4.3,1.8-8.2,4.8-12,8.9l-1.2,1.4l-1.1-1.4c-6-7.6-14.9-11.4-26.1-11.4c-9.6,0-17.5,2.4-23.5,6.8C2.9,121.5,0,127,0,134.1v59.1
			h31.3V140c0-7.3,4.2-8.4,6.6-8.4c2.4,0,4,0.6,4.9,2c0.7,1.2,1.2,3.1,1.2,6.2v53.3h31.3v-53.6c0-6.8,4.1-7.9,6.6-7.9
			c2.4,0,4,0.6,4.9,2c0.8,1.2,1.1,3.1,1.1,6.2v53.6h31.2v-56.9C119.4,127.6,116.8,121.3,111.6,116.8z"/>
	</g>
</g>
</svg>
